<?xml version="1.0"?>
<svg xmlns="http://www.w3.org/2000/svg" xmlns:xlink="http://www.w3.org/1999/xlink" xmlns:svgjs="http://svgjs.com/svgjs" version="1.1" width="512" height="512" x="0" y="0" viewBox="0 0 512.015 512.015" style="enable-background:new 0 0 512 512" xml:space="preserve"><g>
<g xmlns="http://www.w3.org/2000/svg">
	<g>
		<g>
			<path d="M502.539,328.991h-99.193l-21.65,24.357c-1.735,1.953-4.222,3.071-6.835,3.071c-2.612,0-5.1-1.118-6.835-3.071     l-37.293-41.954c-17.847,23.09-45.551,36.393-74.73,35.883c-29.178,0.51-56.883-12.793-74.729-35.883l-37.293,41.954     c-1.735,1.954-4.222,3.071-6.835,3.071c-2.613,0-5.1-1.118-6.835-3.071l-21.651-24.357H9.468     c-2.381,0.122-4.575,1.33-5.951,3.277c-2.35,2.964-3.592,6.655-3.513,10.437c0,32.768,20.942,59.429,46.679,59.429h418.643     c12.772-0.31,24.693-6.473,32.33-16.714c9.566-12.157,14.635-27.247,14.348-42.714     C512.004,335.401,507.579,328.991,502.539,328.991z M44.986,378.178L44.986,378.178c-0.466,1.107-1.115,2.127-1.92,3.018     c-2.617,2.619-6.566,3.379-9.969,1.92c-1.107-0.464-2.126-1.113-3.013-1.92c-0.807-0.89-1.458-1.91-1.924-3.018     c-0.509-1.086-0.758-2.275-0.727-3.474c0.013-1.194,0.26-2.374,0.728-3.473c0.442-1.12,1.095-2.144,1.924-3.018     c0.888-0.807,1.907-1.456,3.013-1.92c2.207-1.009,4.744-1.009,6.951,0c1.119,0.442,2.143,1.094,3.018,1.92     c0.807,0.89,1.456,1.91,1.92,3.018C45.962,373.444,45.962,375.965,44.986,378.178z M72.414,359.893     c-0.466,1.107-1.115,2.127-1.92,3.018c-0.889,0.807-1.91,1.456-3.018,1.92c-3.401,1.459-7.349,0.699-9.964-1.92     c-0.807-0.89-1.458-1.91-1.924-3.018c-0.509-1.086-0.758-2.275-0.727-3.474c0.013-1.194,0.26-2.374,0.728-3.473     c0.442-1.12,1.095-2.144,1.924-3.018c0.888-0.807,1.907-1.456,3.013-1.92c2.207-1.009,4.744-1.009,6.951,0     c1.108,0.464,2.129,1.113,3.018,1.92c0.826,0.875,1.477,1.899,1.92,3.018c0.469,1.099,0.717,2.279,0.732,3.474     C73.178,357.618,72.927,358.808,72.414,359.893z M99.843,378.178L99.843,378.178c-0.466,1.107-1.115,2.127-1.92,3.018     c-2.617,2.619-6.566,3.379-9.969,1.92c-2.294-0.836-4.101-2.643-4.937-4.937c-0.509-1.086-0.758-2.275-0.728-3.474     c0.013-1.194,0.26-2.374,0.728-3.473c0.442-1.12,1.096-2.144,1.924-3.018c0.888-0.807,1.907-1.456,3.013-1.92     c2.207-1.009,4.744-1.009,6.951,0c1.119,0.442,2.143,1.094,3.018,1.92c0.807,0.89,1.456,1.91,1.92,3.018     C100.819,373.444,100.819,375.965,99.843,378.178z M172.986,378.178c-0.466,1.107-1.115,2.127-1.92,3.018     c-0.889,0.807-1.91,1.456-3.018,1.92c-2.214,0.976-4.737,0.976-6.951,0c-2.294-0.836-4.101-2.643-4.937-4.937     c-0.97-2.214-0.97-4.733,0-6.946c0.442-1.12,1.095-2.145,1.924-3.019c2.137-2.22,5.26-3.194,8.279-2.582     c3.02,0.612,5.518,2.724,6.622,5.6C173.962,373.444,173.962,375.965,172.986,378.178L172.986,378.178z M200.414,359.893     c-0.466,1.107-1.115,2.127-1.92,3.018c-0.889,0.807-1.91,1.456-3.018,1.92c-3.401,1.459-7.349,0.699-9.964-1.92     c-0.805-0.91-1.482-1.925-2.013-3.018c-0.439-1.105-0.656-2.285-0.638-3.474c-0.031-1.198,0.219-2.388,0.728-3.473     c0.836-2.294,2.643-4.101,4.937-4.937c2.207-1.009,4.744-1.009,6.951,0c1.108,0.464,2.129,1.113,3.018,1.92     c0.826,0.875,1.477,1.899,1.92,3.018c0.469,1.099,0.717,2.278,0.732,3.472C201.178,357.618,200.927,358.808,200.414,359.893z      M227.843,378.178c-0.466,1.107-1.115,2.127-1.92,3.018c-0.889,0.807-1.91,1.456-3.018,1.92c-2.214,0.976-4.737,0.976-6.951,0     c-2.294-0.836-4.101-2.643-4.937-4.937c-0.97-2.214-0.97-4.733,0-6.946c0.442-1.12,1.095-2.145,1.924-3.019     c2.137-2.22,5.26-3.194,8.279-2.582c3.02,0.612,5.518,2.724,6.622,5.6C228.819,373.444,228.819,375.965,227.843,378.178     L227.843,378.178z M301.075,378.178c-0.531,1.092-1.207,2.107-2.009,3.018c-0.889,0.807-1.91,1.456-3.018,1.92     c-3.402,1.459-7.349,0.699-9.965-1.92c-0.805-0.91-1.482-1.925-2.013-3.018c-0.439-1.105-0.656-2.285-0.638-3.474     c-0.031-1.199,0.219-2.388,0.728-3.473c0.442-1.12,1.095-2.144,1.924-3.018c0.888-0.807,1.907-1.456,3.013-1.92     c2.207-1.009,4.744-1.009,6.951,0c1.119,0.442,2.143,1.094,3.018,1.92c0.807,0.89,1.456,1.91,1.92,3.018     c0.513,1.085,0.763,2.274,0.732,3.474C301.736,375.894,301.517,377.075,301.075,378.178z M328.414,359.893     c-0.466,1.107-1.115,2.127-1.92,3.018c-0.889,0.807-1.91,1.456-3.018,1.92c-3.401,1.459-7.349,0.699-9.964-1.92     c-2.616-2.617-3.377-6.562-1.924-9.964c0.836-2.294,2.643-4.101,4.937-4.937c2.207-1.009,4.744-1.009,6.951,0     c1.108,0.464,2.129,1.113,3.018,1.92c0.826,0.875,1.477,1.899,1.92,3.018c0.469,1.098,0.718,2.278,0.733,3.472     C329.178,357.618,328.927,358.808,328.414,359.893z M355.932,378.178c-0.531,1.092-1.207,2.107-2.009,3.018     c-0.889,0.807-1.91,1.456-3.018,1.92c-3.402,1.459-7.349,0.699-9.965-1.92c-0.805-0.91-1.482-1.925-2.013-3.018     c-0.439-1.105-0.656-2.285-0.638-3.474c-0.031-1.199,0.219-2.388,0.728-3.473c0.442-1.12,1.095-2.144,1.924-3.018     c0.888-0.807,1.907-1.456,3.013-1.92c2.207-1.009,4.744-1.009,6.951,0c1.119,0.442,2.143,1.094,3.018,1.92     c0.807,0.89,1.456,1.91,1.92,3.018c0.513,1.085,0.763,2.274,0.732,3.474C356.593,375.894,356.375,377.075,355.932,378.178z      M428.986,378.178L428.986,378.178c-0.467,1.107-1.116,2.127-1.921,3.018c-0.889,0.807-1.91,1.456-3.018,1.92     c-2.214,0.976-4.737,0.976-6.951,0c-2.294-0.836-4.101-2.643-4.937-4.937c-0.97-2.214-0.97-4.733,0-6.946     c0.442-1.12,1.095-2.145,1.924-3.019c2.188-2.157,5.306-3.085,8.317-2.473c0.573,0.103,1.128,0.29,1.647,0.554     c0.584,0.197,1.138,0.474,1.647,0.821c0.478,0.34,0.935,0.706,1.371,1.098c0.826,0.875,1.477,1.899,1.92,3.018     C429.963,373.444,429.963,375.965,428.986,378.178z M456.414,359.893c-0.466,1.107-1.115,2.127-1.92,3.018     c-0.889,0.807-1.91,1.456-3.018,1.92c-3.401,1.459-7.349,0.699-9.964-1.92c-2.616-2.617-3.377-6.562-1.924-9.964     c0.836-2.294,2.643-4.101,4.937-4.937c2.207-1.009,4.744-1.009,6.951,0c1.108,0.464,2.129,1.113,3.018,1.92     c0.826,0.875,1.477,1.899,1.92,3.018c0.469,1.098,0.718,2.278,0.733,3.472C457.178,357.618,456.927,358.808,456.414,359.893z      M483.844,378.178L483.844,378.178c-0.467,1.107-1.116,2.127-1.921,3.018c-0.889,0.807-1.91,1.456-3.018,1.92     c-2.214,0.976-4.737,0.976-6.951,0c-2.294-0.836-4.101-2.643-4.937-4.937c-0.97-2.214-0.97-4.733,0-6.946     c0.442-1.12,1.095-2.145,1.924-3.019c0.434-0.394,0.891-0.761,1.37-1.098c0.508-0.347,1.061-0.623,1.643-0.821     c0.519-0.264,1.074-0.45,1.647-0.554c1.204-0.268,2.452-0.268,3.656,0c0.573,0.103,1.128,0.29,1.647,0.554     c0.584,0.197,1.138,0.474,1.647,0.821c0.478,0.34,0.935,0.706,1.371,1.098c0.826,0.875,1.477,1.899,1.92,3.018     C484.82,373.444,484.82,375.965,483.844,378.178z" fill="#b39763" data-original="#000000"/>
			<path d="M318.126,297.21L318.126,297.21l-20.513-23.076h-83.218l-20.513,23.076c14.4,19.957,37.512,31.781,62.122,31.781     S303.726,317.167,318.126,297.21z" fill="#b39763" data-original="#000000"/>
			<polygon points="18.289,274.134 18.289,310.705 92.41,310.705 59.898,274.134    " fill="#b39763" data-original="#000000"/>
			<polygon points="189.928,274.134 84.365,274.134 137.146,333.517    " fill="#b39763" data-original="#000000"/>
			<polygon points="374.861,333.517 427.642,274.134 322.079,274.134    " fill="#b39763" data-original="#000000"/>
			<path d="M354.168,119.416c7.41,10.499,11.439,23.01,11.55,35.86c0,5.049-4.093,9.143-9.143,9.143     c-5.049,0-9.143-4.093-9.143-9.143c-0.521-18.016-11.232-34.172-27.623-41.667c-15.069-1.951-30.689-3.193-46.689-3.728     c12.285,11.928,19.29,28.273,19.454,45.395c0,5.049-4.093,9.143-9.143,9.143s-9.143-4.093-9.143-9.143     c-0.614-22.607-17.199-41.592-39.519-45.237c-11.095,0.461-21.977,1.266-32.647,2.415c10.855,11.649,17.02,26.901,17.309,42.821     c0,5.049-4.093,9.143-9.143,9.143c-5.049,0-9.143-4.093-9.143-9.143c-0.441-16.376-9.368-31.343-23.566-39.513     C74.673,132.453,0.004,181.042,0.004,238.25v17.598h512V238.25C512.004,184.768,446.747,138.814,354.168,119.416z" fill="#b39763" data-original="#000000"/>
			<polygon points="493.718,274.134 452.109,274.134 419.597,310.705 493.718,310.705    " fill="#b39763" data-original="#000000"/>
		</g>
	</g>
</g>
<g xmlns="http://www.w3.org/2000/svg">
</g>
<g xmlns="http://www.w3.org/2000/svg">
</g>
<g xmlns="http://www.w3.org/2000/svg">
</g>
<g xmlns="http://www.w3.org/2000/svg">
</g>
<g xmlns="http://www.w3.org/2000/svg">
</g>
<g xmlns="http://www.w3.org/2000/svg">
</g>
<g xmlns="http://www.w3.org/2000/svg">
</g>
<g xmlns="http://www.w3.org/2000/svg">
</g>
<g xmlns="http://www.w3.org/2000/svg">
</g>
<g xmlns="http://www.w3.org/2000/svg">
</g>
<g xmlns="http://www.w3.org/2000/svg">
</g>
<g xmlns="http://www.w3.org/2000/svg">
</g>
<g xmlns="http://www.w3.org/2000/svg">
</g>
<g xmlns="http://www.w3.org/2000/svg">
</g>
<g xmlns="http://www.w3.org/2000/svg">
</g>
</g></svg>
