<?xml version="1.0"?>
<svg xmlns="http://www.w3.org/2000/svg" xmlns:xlink="http://www.w3.org/1999/xlink" xmlns:svgjs="http://svgjs.com/svgjs" version="1.1" width="512" height="512" x="0" y="0" viewBox="0 0 512 512" style="enable-background:new 0 0 512 512" xml:space="preserve" class=""><g><g xmlns="http://www.w3.org/2000/svg"><path d="m494.8 307.16c-18.43 14.177-42.495 21.984-67.762 21.984-20.606 0-40.41-5.196-57.013-14.801-16.602 9.605-36.406 14.801-57.012 14.801s-40.41-5.196-57.013-14.801c-16.602 9.605-36.406 14.801-57.013 14.801-20.606 0-40.41-5.196-57.013-14.801-16.602 9.605-36.406 14.801-57.012 14.801-25.268 0-49.333-7.807-67.762-21.984-6.709-5.161-12.473-11.056-17.2-17.475v8.504c0 49.969 40.653 90.622 90.622 90.622h330.757c49.969 0 90.621-40.653 90.621-90.622v-8.503c-4.727 6.418-10.491 12.314-17.2 17.474z" fill="#b39763" data-original="#000000" class=""/><path d="m99.159 249.667h-83.912c2.875 27.691 32.978 49.478 69.716 49.478 11.469 0 22.283-2.137 31.835-5.899-10.486-12.739-16.675-27.847-17.639-43.579z" fill="#b39763" data-original="#000000" class=""/><path d="m230.823 293.245c-10.487-12.737-16.675-27.846-17.639-43.578h-83.913c2.876 27.691 32.978 49.478 69.716 49.478 11.47-.001 22.284-2.138 31.836-5.9z" fill="#b39763" data-original="#000000" class=""/><path d="m344.848 293.245c-10.487-12.737-16.675-27.846-17.639-43.578h-83.913c2.875 27.691 32.978 49.478 69.716 49.478 11.47-.001 22.284-2.138 31.836-5.9z" fill="#b39763" data-original="#000000" class=""/><path d="m357.322 249.667c2.875 27.691 32.978 49.478 69.716 49.478s66.841-21.787 69.716-49.478z" fill="#b39763" data-original="#000000" class=""/><path d="m0 219.667h512s-.394-15.536-1.142-20.214c-6.902-43.17-44.396-76.264-89.479-76.264h-20.797c-15.728.063-28.506 12.875-28.506 28.619h-30c0-10.389 2.728-20.148 7.488-28.619h-63.008c-15.728.063-28.506 12.875-28.506 28.619h-30c0-10.389 2.728-20.148 7.488-28.619h-63.007c-15.729.063-28.507 12.875-28.507 28.619h-30c0-10.389 2.728-20.148 7.488-28.619h-30.89c-45.083 0-82.579 33.094-89.48 76.265-.748 4.677-1.142 20.213-1.142 20.213z" fill="#b39763" data-original="#000000" class=""/></g></g></svg>
