<?xml version="1.0"?>
<svg xmlns="http://www.w3.org/2000/svg" xmlns:xlink="http://www.w3.org/1999/xlink" xmlns:svgjs="http://svgjs.com/svgjs" version="1.1" width="512" height="512" x="0" y="0" viewBox="0 0 512.265 512.265" style="enable-background:new 0 0 512 512" xml:space="preserve" class=""><g><path xmlns="http://www.w3.org/2000/svg" d="m31.515 433.318c-.156 32.911 17.66 60.027 47.658 72.536 14.22 5.93 29.516 7.794 44.237 5.391 15.226-2.484 29.08-9.604 40.063-20.587 4.227-4.228 8.107-9.089 11.531-14.45 3.538-5.538 7.17-11.102 10.874-16.652l-153.877-44.314c-.296 6.088-.459 12.128-.486 18.076z" fill="#b39763" data-original="#000000"/><path xmlns="http://www.w3.org/2000/svg" d="m505.884 78.723c-12.283-29.583-38.856-47.233-71.092-47.233-.049 0-.093 0-.142 0-6.387.01-12.866.174-19.389.489l44.315 153.879c5.557-3.708 11.125-7.344 16.666-10.883 5.315-3.395 10.138-7.245 14.335-11.442 21.685-21.689 27.694-54.979 15.307-84.81z" fill="#b39763" data-original="#000000"/><path xmlns="http://www.w3.org/2000/svg" d="m260.895 30.76 127.047 208.032c14.859-12.055 30.125-23.741 45.604-34.91l-58.714-203.882c-39.363 5.031-77.567 15.346-113.937 30.76z" fill="#b39763" data-original="#000000"/><path xmlns="http://www.w3.org/2000/svg" d="m30.779 260.875c-15.413 36.372-25.731 74.583-30.762 113.937l203.885 58.715c11.17-15.481 22.855-30.744 34.91-45.604z" fill="#b39763" data-original="#000000"/><path xmlns="http://www.w3.org/2000/svg" d="m215.81 14.496c-42.827 22.091-81.89 50.651-116.268 85.028-34.377 34.377-62.938 73.44-85.028 116.267l243.764 148.869c16.355-18.962 33.55-37.477 51.237-55.164s36.199-34.88 55.163-51.237z" fill="#b39763" data-original="#000000"/></g></svg>
