<?xml version="1.0"?>
<svg xmlns="http://www.w3.org/2000/svg" xmlns:xlink="http://www.w3.org/1999/xlink" xmlns:svgjs="http://svgjs.com/svgjs" version="1.1" width="512" height="512" x="0" y="0" viewBox="0 0 512 512" style="enable-background:new 0 0 512 512" xml:space="preserve" class=""><g><path xmlns="http://www.w3.org/2000/svg" d="m361.16 61.892c18.69.573 37.928 6.892 60.262 19.787 14.828 8.561 34.543 21.724 47.279 42.291l21.288-7.975c19.608-7.346 27.927-30.541 17.458-48.674-7.213-12.492-20.948-18.27-34.091-16.424.154-11.767-5.79-23.405-16.934-29.839s-24.195-5.763-34.308.254c-4.973-12.305-16.844-21.312-31.269-21.312-20.939 0-36.866 18.802-33.424 39.456z" fill="#b39763" data-original="#000000" class=""/><path xmlns="http://www.w3.org/2000/svg" d="m0 272v65c0 58.328 43.651 106.649 100 114.022v45.978c0 8.284 6.716 15 15 15h282c8.284 0 15-6.716 15-15v-45.978c56.349-7.373 100-55.694 100-114.022v-65z" fill="#b39763" data-original="#000000" class=""/><path xmlns="http://www.w3.org/2000/svg" d="m506.966 167.388c-4.663-4.146-11.403-4.972-16.93-2.076l-8.742 4.581c-.36 19.282-6.901 40.038-19.609 62.049-1.876 3.25-3.93 6.608-6.151 10.058h33.266l22.209-58.041c2.229-5.827.619-12.425-4.043-16.571z" fill="#b39763" data-original="#000000" class=""/><path xmlns="http://www.w3.org/2000/svg" d="m91.811 157.329c22.443-20.191 51.259-27.145 71.989-29.378 1.608-.173 3.241-.261 4.854-.261 12.732 0 24.925 5.445 33.45 14.939 8.519 9.485 12.62 22.199 11.254 34.882-1.99 18.484-7.735 43.396-23.271 64.489h38.071c0-2.257.254-4.527.773-6.768 9.575-41.351 25.757-84.761 42.229-113.291 9.065-15.7 19.112-28.34 30.083-37.913-11.469-14.767-28.129-24.812-46.676-27.968-3.578-13.764-11.029-26.285-21.646-36.114-13.894-12.862-31.978-19.946-50.921-19.946s-37.027 7.084-50.921 19.947c-10.614 9.826-18.065 22.346-21.645 36.106-35.394 5.995-62.434 36.873-62.434 73.947 0 1.088.031 2.182.08 3.279 15.101 4.404 31.092 11.78 44.731 24.05z" fill="#b39763" data-original="#000000" class=""/><path xmlns="http://www.w3.org/2000/svg" d="m24.343 231.967c3.925 3.925 8.25 7.236 12.781 10.033h109.372c4.531-2.796 8.856-6.108 12.781-10.033 16.955-16.955 22.499-41.373 24.255-57.669 1.025-9.518-7-17.544-16.519-16.519-16.296 1.755-40.714 7.3-57.669 24.254-8.259 8.259-13.808 18.289-17.533 28.288-3.725-9.999-9.274-20.029-17.533-28.288-16.955-16.955-41.373-22.499-57.669-24.254-9.518-1.025-17.544 7-16.519 16.519 1.754 16.296 7.298 40.714 24.253 57.669z" fill="#b39763" data-original="#000000" class=""/><path xmlns="http://www.w3.org/2000/svg" d="m290.099 150.198 34.182 19.735c7.175 4.142 9.633 13.316 5.49 20.49-2.778 4.812-7.82 7.502-13.004 7.502-2.545 0-5.124-.648-7.486-2.012l-31.271-18.054c-7.77 19.893-14.78 42.234-19.853 64.141h160.89c6.526-8.826 12.184-17.312 16.657-25.058.852-1.476 1.657-2.929 2.434-4.369l-34.574-19.962c-7.175-4.142-9.633-13.316-5.49-20.49 4.143-7.175 13.315-9.634 20.49-5.49l30.792 17.778c8.77-36.97-12.663-59.273-42.934-76.75-38.264-22.091-76.145-28.113-109.282 29.282-2.343 4.059-4.699 8.503-7.041 13.257z" fill="#b39763" data-original="#000000" class=""/></g></svg>
