<?xml version="1.0"?>
<svg xmlns="http://www.w3.org/2000/svg" xmlns:xlink="http://www.w3.org/1999/xlink" xmlns:svgjs="http://svgjs.com/svgjs" version="1.1" width="512" height="512" x="0" y="0" viewBox="0 0 512 512" style="enable-background:new 0 0 512 512" xml:space="preserve" class=""><g><g xmlns="http://www.w3.org/2000/svg"><path d="m264.013 268.78c3.454-7.27 7.278-14.372 11.474-21.268 2.825-4.644 5.823-9.174 8.956-13.605-9.303-1.934-18.812-2.915-28.443-2.915-36.162 0-70.476 13.835-96.62 38.957-22.243 21.372-36.566 48.958-41.247 78.912h38.106c4.383-20.208 14.84-38.673 30.237-53.012 18.965-17.662 43.655-27.389 69.524-27.389 2.673.001 5.348.111 8.013.32z" fill="#b39763" data-original="#000000"/><path d="m301.115 263.104c-15.847 26.047-25.689 55.424-28.873 85.757h37.703c3.65-28.491 14.465-55.499 31.687-78.826 15.27-20.685 34.796-37.45 57.201-49.326-9.854-9.399-20.484-17.72-31.743-24.903-26.757 17.047-49.46 40.154-65.975 67.298z" fill="#b39763" data-original="#000000"/><path d="m365.768 287.852c-13.393 18.143-22.078 38.988-25.525 61.009h38.13c7.204-33.038 30.556-60.504 61.779-73.06-5.783-11.216-12.609-21.925-20.432-31.995-21.327 9.851-39.835 24.924-53.952 44.046z" fill="#b39763" data-original="#000000"/><path d="m409.382 348.861h52.516c-1.62-15.611-4.991-30.841-9.991-45.465-20.303 7.948-35.976 24.799-42.525 45.465z" fill="#b39763" data-original="#000000"/><path d="m177.829 113.915c12.579 12.579 31.868 17.035 45.836 18.56 6.462.704 12.438.865 17.312.8.036-1.397.097-2.859.189-4.375-.059-3.96-.281-8.414-.795-13.132-1.524-13.968-5.98-33.257-18.56-45.836-17.196-17.195-46.81-19.533-63.342-19.314-.069 4.897.088 10.934.8 17.462 1.524 13.967 5.981 33.256 18.56 45.835z" fill="#b39763" data-original="#000000"/><path d="m138.593 248.316c31.761-30.518 73.456-47.324 117.406-47.324 16.852 0 33.407 2.469 49.354 7.333 9.733-10.358 20.382-19.84 31.807-28.312-25.352-10.804-52.85-16.491-81.16-16.491-54.214 0-105.469 20.812-144.324 58.601-35.053 34.092-56.584 78.628-61.576 126.738h37.736c4.886-38.205 22.595-73.484 50.757-100.545z" fill="#b39763" data-original="#000000"/><path d="m0 378.861v30.887c0 28.479 23.169 51.647 51.647 51.647h408.705c28.479 0 51.647-23.169 51.647-51.647v-30.887z" fill="#b39763" data-original="#000000"/><path d="m242.081 348.861c1.567-17.118 4.993-33.991 10.182-50.298-30.257 1.578-56.062 22.184-64.993 50.298z" fill="#b39763" data-original="#000000"/><path d="m271.181 132.977c11.457-.448 26.442-3.121 35.207-11.884 7.76-7.76 10.502-20.095 11.437-29.076.233-2.24.368-4.383.435-6.366-11.482.423-26.601 3.078-35.418 11.896-7.858 7.858-10.816 20.715-11.665 31.56.016 1.341.016 2.63.004 3.87z" fill="#b39763" data-original="#000000"/></g></g></svg>
