<?xml version="1.0"?>
<svg xmlns="http://www.w3.org/2000/svg" xmlns:xlink="http://www.w3.org/1999/xlink" xmlns:svgjs="http://svgjs.com/svgjs" version="1.1" width="512" height="512" x="0" y="0" viewBox="0 0 502.988 502.988" style="enable-background:new 0 0 512 512" xml:space="preserve" class=""><g><g xmlns="http://www.w3.org/2000/svg"><g id="Page-1_8_"><g id="_x30_09---Ravioli"><path id="Path_50_" clip-rule="evenodd" d="m160.784 46.394c.153 9.724-2.851 19.236-8.56 27.109-3.871 5.011-5.895 11.204-5.731 17.534-.156 6.293 1.862 12.447 5.713 17.426 5.213 7.241 8.161 15.866 8.47 24.783 5.922-2.676 12.366-3.999 18.863-3.871 3.585-.013 7.161.37 10.662 1.141 1.096-18.998 2.623-37.726 4.851-55.691 1.514-12.318 11.246-22.008 23.57-23.471 69.569-8.587 139.929-8.587 209.498 0 12.339 1.487 22.061 11.22 23.534 23.561 8.583 69.566 8.583 139.923 0 209.489-1.486 12.336-11.214 22.058-23.552 23.534-18.441 2.246-36.756 3.755-54.793 4.824.822 3.607 1.229 7.295 1.213 10.995.127 6.429-1.171 12.806-3.8 18.675 8.85.363 17.402 3.304 24.603 8.461 10.405 7.629 24.555 7.629 34.96 0 7.905-5.712 17.447-8.712 27.199-8.551 10.644.655 20.816 4.629 29.085 11.363 10.509 7.123 11.147 6.503 14.219 3.413s3.737-3.746-3.395-14.183c-6.778-8.277-10.779-18.479-11.435-29.157-.159-9.732 2.849-19.252 8.569-27.127 7.641-10.401 7.641-24.559 0-34.96-11.415-16.277-11.415-37.959 0-54.236 7.628-10.365 7.628-24.487 0-34.852-5.72-7.875-8.728-17.395-8.569-27.127-.159-9.732 2.849-19.252 8.569-27.127 3.851-4.995 5.859-11.166 5.686-17.471.153-6.294-1.868-12.448-5.722-17.426-5.72-7.875-8.728-17.395-8.569-27.127.663-10.662 4.667-20.845 11.444-29.103 7.132-10.438 6.503-11.066 3.44-14.111-4.383-4.356-4.491-4.446-13.698 1.743-7.75 5.642-16.43 9.88-25.645 12.522-11.087 3.134-23.007.473-31.708-7.078-4.747-4.125-10.78-6.472-17.067-6.638-6.332-.159-12.526 1.864-17.543 5.731-7.906 5.71-17.447 8.71-27.199 8.551-9.721.151-19.231-2.845-27.109-8.542-10.406-7.636-24.563-7.636-34.969 0-7.904 5.724-17.451 8.73-27.208 8.569-9.781.158-19.348-2.865-27.262-8.614-10.407-7.631-24.561-7.631-34.969 0-7.906 5.71-17.447 8.71-27.199 8.551-10.651-.657-20.829-4.633-29.103-11.372-10.5-7.141-11.129-6.512-14.201-3.458s-3.737 3.737 3.44 14.237c6.761 8.255 10.755 18.429 11.418 29.081z" fill-rule="evenodd" fill="#b39763" data-original="#000000"/><path id="Shape_17_" d="m17.037 190.113c.156 9.741-2.854 19.27-8.578 27.154-7.629 10.385-7.629 24.521 0 34.906 5.723 7.881 8.733 17.407 8.578 27.145.156 9.733-2.855 19.253-8.578 27.127-7.628 10.365-7.628 24.487 0 34.852 5.725 7.876 8.736 17.4 8.578 27.136.156 9.733-2.855 19.253-8.578 27.127-7.63 10.368-7.63 24.493 0 34.861 5.724 7.874 8.734 17.394 8.578 27.127-.663 10.652-4.657 20.826-11.417 29.085-7.141 10.465-6.503 11.093-3.431 14.156s3.719 3.755 14.282-3.422c8.29-6.748 18.487-10.728 29.157-11.381 9.749-.155 19.289 2.841 27.199 8.542 5.015 3.862 11.206 5.882 17.534 5.722 6.322.16 12.507-1.86 17.516-5.722 16.327-11.39 38.025-11.39 54.353 0 10.428 7.638 24.603 7.638 35.032 0 16.317-11.391 38.009-11.391 54.326 0 10.428 7.638 24.603 7.638 35.032 0 7.901-5.7 17.431-8.696 27.172-8.542 10.662.65 20.851 4.631 29.13 11.381 10.509 7.132 11.156 6.512 14.246 3.422s3.728-3.719-3.422-14.192c-6.765-8.266-10.759-18.451-11.417-29.112-.157-9.743 2.85-19.274 8.569-27.163 7.63-10.381 7.63-24.516 0-34.897-11.426-16.286-11.426-37.986 0-54.272 7.628-10.365 7.628-24.487 0-34.852-11.426-16.28-11.426-37.974 0-54.254 7.628-10.365 7.628-24.487 0-34.852-5.72-7.875-8.728-17.395-8.569-27.127.658-10.652 4.649-20.827 11.408-29.085 7.186-10.456 6.503-11.093 3.431-14.156-4.383-4.383-4.491-4.491-13.707 1.734-7.735 5.642-16.399 9.883-25.6 12.531-11.108 3.135-23.048.464-31.762-7.105-4.748-4.123-10.781-6.466-17.067-6.629-6.325-.157-12.512 1.863-17.525 5.722-16.325 11.389-38.019 11.389-54.344 0-10.428-7.638-24.603-7.638-35.032 0-3.047 2.045-6.273 3.809-9.638 5.273l-.243.099c-5.49 2.195-11.362 3.273-17.273 3.171-9.742.162-19.275-2.835-27.172-8.542-5.004-3.857-11.182-5.877-17.498-5.722-6.316-.155-12.494 1.865-17.498 5.722-7.898 5.705-17.43 8.702-27.172 8.542-10.66-.651-20.848-4.628-29.13-11.372-6-4.078-8.785-5.623-10.644-5.623-1.401 0-2.273.898-3.593 2.201-3.09 3.081-3.728 3.719 3.422 14.192 6.736 8.268 10.705 18.445 11.345 29.092zm34.34 28.412c1.513-12.279 11.191-21.95 23.471-23.453 69.599-8.587 139.989-8.587 209.588 0 12.282 1.509 21.958 11.188 23.462 23.471 8.587 69.599 8.587 139.989 0 209.588-1.5 12.286-11.177 21.971-23.462 23.48-34.768 4.288-69.767 6.436-104.798 6.431-35.032.004-70.03-2.144-104.798-6.431-12.282-1.509-21.958-11.188-23.462-23.471-8.589-69.608-8.589-140.007-.001-209.615z" fill="#b39763" data-original="#000000"/><path id="Shape_16_" d="m77.04 433.754c68.136 8.417 137.05 8.417 205.186 0 4.086-.541 7.301-3.756 7.842-7.842 8.408-68.137 8.408-137.049 0-205.186-.544-4.084-3.757-7.298-7.842-7.842-68.137-8.408-137.049-8.408-205.186 0-4.091.541-7.31 3.76-7.851 7.851-8.399 68.135-8.399 137.043 0 205.177.542 4.089 3.762 7.304 7.851 7.842zm8.372-196.716c.446-4.211 3.774-7.539 7.985-7.985 13.474-1.428 27.253-2.542 40.897-3.306 4.961-.278 9.208 3.519 9.485 8.479.278 4.961-3.519 9.208-8.479 9.485-10.914.611-21.908 1.455-32.768 2.497-.725 7.575-1.344 15.15-1.859 22.726-.322 4.721-4.251 8.383-8.982 8.372-.198 0-.413 0-.611 0-2.378-.159-4.595-1.256-6.163-3.051-1.568-1.794-2.36-4.138-2.199-6.516.707-10.24 1.605-20.462 2.695-30.666v-.035z" fill="#b39763" data-original="#000000"/><path id="Path_49_" clip-rule="evenodd" d="m360.212 279.165c-.19 5.753 1.532 11.407 4.895 16.079 19.932-1.015 40.322-2.695 60.829-5.183 4.111-.537 7.346-3.775 7.878-7.887 8.412-68.119 8.412-137.014 0-205.132-.531-4.119-3.769-7.364-7.887-7.905-68.119-8.408-137.013-8.408-205.132 0-4.122.525-7.37 3.766-7.905 7.887-2.452 19.761-4.141 40.421-5.192 61.512 4.783 3.488 10.592 5.284 16.51 5.102 6.321.159 12.504-1.858 17.516-5.713 7.903-5.71 17.441-8.71 27.19-8.551 9.968.113 19.605 3.595 27.343 9.881 6.225 4.312 9.351 6.485 16.914 4.491 7.267-2.145 14.1-5.553 20.184-10.069 9.045-6.081 21.459-14.426 36.406.449 14.282 14.228 4.922 27.935-1.267 37.017-4.602 5.343-7.491 11.947-8.291 18.953-.158 6.295 1.863 12.45 5.722 17.426 11.426 16.28 11.426 37.974 0 54.254-3.844 4.968-5.862 11.109-5.713 17.389z" fill-rule="evenodd" fill="#b39763" data-original="#000000"/></g></g></g></g></svg>
