<?xml version="1.0"?>
<svg xmlns="http://www.w3.org/2000/svg" xmlns:xlink="http://www.w3.org/1999/xlink" xmlns:svgjs="http://svgjs.com/svgjs" version="1.1" width="512" height="512" x="0" y="0" viewBox="0 0 56 48" style="enable-background:new 0 0 512 512" xml:space="preserve" class=""><g><g xmlns="http://www.w3.org/2000/svg" id="023---Soy-Sauce" transform="translate(-1)"><path id="Shape" d="m51.1 12.11c-3.73-4.662-12.468-8.11-22.1-8.11s-18.37 3.448-22.1 8.11c11.772-8.145 32.409-8.158 44.2 0z" fill="#b39763" data-original="#000000"/><path id="Shape" d="m39 46.4v-2.743c-6.5456993 1.7960505-13.4543007 1.7960505-20 0v2.743c4.647 2.133 15.317 2.15 20 0z" fill="#b39763" data-original="#000000"/><path id="Shape" d="m3.276 26.805c2.57372032 6.8651374 8.0929393 12.212569 15.036 14.568 6.9736505 2.1805079 14.4471844 2.1773676 21.419-.009 8.573-2.68 12.822-9.133 15.016-14.581-11.535 12.281-39.92 12.281-51.471.022z" fill="#b39763" data-original="#000000"/><path id="Shape" d="m29 0c-15.431 0-28.185 7.62-28 16.985.00962628 1.2511976.23492698 2.4913663.666 3.666 2.818 7.738 14.313 13.349 27.334 13.349s24.516-5.611 27.331-13.342c.4344181-1.175898.6607981-2.4184499.669-3.672.178-9.366-12.568-16.986-28-16.986zm25.458 19.954c-2.499 6.864-13.444 12.046-25.458 12.046s-22.955-5.17-25.451-12.026c-.35859397-.9507438-.54451268-1.9578881-.549-2.974 0-8.131 11.907-15 26-15 15.72 0 28.921 8.659 25.458 17.954z" fill="#b39763" data-original="#000000"/><path id="Shape" d="m5.048 16.253c-.12392006 1.0257149.00587897 2.0661675.378 3.03 2.225 6.117 12.359 10.717 23.574 10.717s21.353-4.616 23.582-10.737c.3670996-.9581101.4941283-1.9915064.37-3.01-10.884-10.948-36.945-11.024-47.904 0zm15.952 2.747c0-.5522847.4477153-1 1-1s1 .4477153 1 1c0 .7 2.278 2 6 2 .5522847 0 1 .4477153 1 1s-.4477153 1-1 1c-3.976 0-8-1.374-8-4zm24 0c0-.5522847.4477153-1 1-1s1 .4477153 1 1c0 5.047-7.907 9-18 9-.5522847 0-1-.4477153-1-1s.4477153-1 1-1c9.571 0 16-3.62 16-7zm-8 0c0 .5522847-.4477153 1-1 1s-1-.4477153-1-1c0-.7-2.278-2-6-2-.5522847 0-1-.4477153-1-1s.4477153-1 1-1c3.976 0 8 1.374 8 4zm-7-8c0 .5522847-.4477153 1-1 1-9.571 0-16 3.62-16 7 0 .5522847-.4477153 1-1 1s-1-.4477153-1-1c0-5.047 7.907-9 18-9 .5522847 0 1 .4477153 1 1z" fill="#b39763" data-original="#000000"/></g></g></svg>
