<?xml version="1.0"?>
<svg xmlns="http://www.w3.org/2000/svg" xmlns:xlink="http://www.w3.org/1999/xlink" xmlns:svgjs="http://svgjs.com/svgjs" version="1.1" width="512" height="512" x="0" y="0" viewBox="0 0 64 64" style="enable-background:new 0 0 512 512" xml:space="preserve" class=""><g><path xmlns="http://www.w3.org/2000/svg" d="m59.77 30.65a12.07058 12.07058 0 0 0 -5.93-8.86c-7.38-4.35-8.32-6.21-8.42-6.5-2.83388-9.2354-5.40568-9.921-13.67-11.02-5.29994-1.09282-10.02534 1.216-13.63 6.9a36.68286 36.68286 0 0 1 -10.54006 10.80991c-4.2578 3.29385-2.89162 7.6768-3.33986 11.5-.87008 6.14009 3.02992 11.54009 4.73992 13.57009 2.68 3.17 5.87 5.26 8.11005 5.32 1.71.05 3.94 1.34 6.29 3.66a13.82175 13.82175 0 0 0 9.65 3.96 12.58886 12.58886 0 0 0 9.84-4.53c1.5-1.92 6.71-8.37 11-11.01 5.11-3.13 5.49-6.17 5.5-6.97a21.61271 21.61271 0 0 0 .39995-6.83zm-32.25 13.95a11.41416 11.41416 0 0 1 -11.4-11.4c.62679-15.12416 22.18172-15.1194 22.8.00009a11.40773 11.40773 0 0 1 -11.4 11.39991z" fill="#b39763" data-original="#000000" class=""/><path xmlns="http://www.w3.org/2000/svg" d="m27.52 23.8a9.41474 9.41474 0 0 0 -9.4 9.4c.51148 12.46688 18.29673 12.4628 18.8-.00008a9.40827 9.40827 0 0 0 -9.4-9.39992zm-2.64 4.07c-.16.08-3.29 1.78-2.71 5.16a.99956.99956 0 0 1 -1.97.34 7.08526 7.08526 0 0 1 3.76-7.28 1.00223 1.00223 0 0 1 .92 1.78z" fill="#b39763" data-original="#000000" class=""/></g></svg>
